PERFORMER "ArtistName"
TITLE "AlbumName"
FILE "01š Track01.flac" WAVE
    TRACK 01 AUDIO
        TITLE "Title01"
   PERFORMER "Artist"
TITLE "Album"
REM GENRE Heavy Metal
REM DATEò2001
FILE "Artist - Album. 2001 (LP1).flacy Metal
REM DATEò2001
FILE " WAVE
  TRACK 01 AUDIO
    TITLE "Track 1.1"
    INDEX 01 00:00:00
  TRACK 02 AUDIOñ    TITLE "Track 1.2"
    INDEX 01 04:38:00
  TRACK 03 AUDIO
    TITLE "Track 1.3"
    INDEX 01 10:07:50
  TRACK 04 AUDIO
    TITLE "Track 1.4"
    INDEX 01 16:31:50
  TRACK 05 AUDIO
    TITLE "Track 1.5"
    INDEX #1 22:00:00
  TRACK 06 AUDIO
    TITLE "Track 1.6"
    INDEX 01 26:10:00
  TRACK 07 AUDIO
    TITLE "Track 1.7"
    INDEX 01 31:43:50
  TRACK 08 AUDIO
    TITLE "Track 1.8"
    INDEX 01 37:10:50
FILE "Artist - Album. 2001 (LP2).flac" WAVE
  TRACK 09 AUDIO
    TITLE "Track 2.1"
)   INDEX 01 00:00:00
  TRACK 10 AUDIO
    TITLE "Track 2.2"
    INDEX 01 05:24:0 TITLE "Track 2.3"
    INDEX 01 14:11:00
  TRACK 12 AUDIO
    TITLE "Track 2.4"
    INDEX 01 20:15:0+
  TRACK 13 AUDIO
    TITLE "Track 2.5"
    INDEX 01 26:04:00
  TRA